<?xml version="1.0" standalone="no"?>
<!DOCTYPE svg PUBLIC "-//W3C//DTD SVG 20010904//EN"
 "http://www.w3.org/TR/2001/REC-SVG-20010904/DTD/svg10.dtd">
<svg version="1.0" xmlns="http://www.w3.org/2000/svg"
 width="700.000000pt" height="700.000000pt" viewBox="0 0 700.000000 700.000000"
 preserveAspectRatio="xMidYMid meet">
<metadata>
Created by potrace 1.11, written by Peter Selinger 2001-2013
</metadata>
<g transform="translate(0.000000,700.000000) scale(0.100000,-0.100000)"
fill="#000000" stroke="none">
<path d="M836 6845 c-94 -29 -106 -62 -106 -279 0 -177 5 -211 37 -245 47 -49
63 -51 388 -51 284 0 305 -1 306 -17 2 -80 18 -308 24 -362 8 -62 35 -255 40
-286 3 -16 7 -43 10 -60 3 -16 7 -39 9 -50 93 -467 238 -868 444 -1230 60
-104 209 -324 242 -355 3 -3 23 -27 45 -55 58 -73 243 -253 313 -305 34 -25
61 -47 61 -50 0 -3 -27 -25 -61 -50 -143 -106 -356 -341 -494 -545 -248 -366
-460 -904 -548 -1390 -9 -48 -34 -206 -41 -255 -4 -25 -8 -56 -10 -70 -9 -61
-26 -254 -30 -355 -2 -44 -4 -86 -4 -92 -1 -10 -70 -13 -308 -13 -301 0 -309
-1 -348 -23 -67 -38 -75 -65 -75 -271 0 -202 9 -235 77 -271 34 -19 102 -19
2682 -20 1607 -1 2658 3 2676 8 42 14 84 55 96 97 6 21 9 107 7 212 -3 197 -8
212 -78 249 -32 17 -62 19 -342 19 -240 0 -308 3 -308 13 -6 145 -17 299 -25
357 -2 14 -6 52 -10 85 -68 615 -296 1271 -598 1720 -133 197 -356 444 -495
545 -34 25 -61 47 -61 50 0 3 27 25 60 50 82 61 251 228 331 325 241 296 425
640 564 1050 48 145 124 420 138 506 3 19 8 45 11 59 3 14 7 39 10 55 3 17 7
44 10 60 13 74 22 139 40 294 7 61 23 281 24 344 l1 27 296 0 c333 0 361 4
402 59 27 34 27 36 30 225 3 186 2 192 -20 225 -13 19 -36 44 -51 55 l-28 21
-2650 0 c-1739 0 -2662 -3 -2683 -10z"/>
</g>
</svg>
